<svg width="1092" height="320" viewBox="0 0 1092 320" fill="none" xmlns="http://www.w3.org/2000/svg">
    <rect width="1092" height="320" rx="20" fill="#121214" />
    <path
        d="M86.8164 93.5625V122H83.2227V93.5625H86.8164ZM83.0078 91.4531L86.7969 85.7109H91.1523L85.918 91.4531H83.0078ZM99.9219 119.441C100.612 119.441 101.237 119.305 101.797 119.031C102.37 118.745 102.839 118.302 103.203 117.703C103.568 117.091 103.776 116.297 103.828 115.32H107.07C107.018 116.727 106.66 117.964 105.996 119.031C105.345 120.086 104.486 120.913 103.418 121.512C102.363 122.098 101.198 122.391 99.9219 122.391C98.5547 122.391 97.3633 122.169 96.3477 121.727C95.3451 121.284 94.5117 120.646 93.8477 119.812C93.1966 118.966 92.7083 117.944 92.3828 116.746C92.0573 115.535 91.8945 114.161 91.8945 112.625V110.242C91.8945 108.706 92.0573 107.339 92.3828 106.141C92.7083 104.93 93.1966 103.908 93.8477 103.074C94.5117 102.228 95.3451 101.583 96.3477 101.141C97.3633 100.698 98.5547 100.477 99.9219 100.477C101.354 100.477 102.591 100.783 103.633 101.395C104.688 101.993 105.508 102.866 106.094 104.012C106.693 105.145 107.018 106.518 107.07 108.133H103.828C103.776 107.091 103.587 106.225 103.262 105.535C102.936 104.832 102.493 104.311 101.934 103.973C101.374 103.621 100.703 103.445 99.9219 103.445C99.0104 103.445 98.2552 103.608 97.6562 103.934C97.0703 104.246 96.6081 104.702 96.2695 105.301C95.931 105.9 95.6901 106.616 95.5469 107.449C95.4167 108.283 95.3516 109.214 95.3516 110.242V112.625C95.3516 113.654 95.4167 114.591 95.5469 115.438C95.6901 116.271 95.9245 116.987 96.25 117.586C96.5885 118.185 97.0573 118.647 97.6562 118.973C98.2552 119.285 99.0104 119.441 99.9219 119.441ZM110.352 112.449V110.438C110.352 108.797 110.56 107.358 110.977 106.121C111.393 104.871 111.973 103.829 112.715 102.996C113.457 102.163 114.323 101.538 115.312 101.121C116.302 100.691 117.363 100.477 118.496 100.477C119.655 100.477 120.729 100.691 121.719 101.121C122.708 101.538 123.574 102.163 124.316 102.996C125.072 103.829 125.658 104.871 126.074 106.121C126.491 107.358 126.699 108.797 126.699 110.438V112.449C126.699 114.09 126.491 115.535 126.074 116.785C125.658 118.022 125.078 119.057 124.336 119.891C123.594 120.724 122.728 121.349 121.738 121.766C120.749 122.182 119.681 122.391 118.535 122.391C117.389 122.391 116.322 122.182 115.332 121.766C114.342 121.349 113.47 120.724 112.715 119.891C111.973 119.057 111.393 118.022 110.977 116.785C110.56 115.535 110.352 114.09 110.352 112.449ZM113.809 110.438V112.449C113.809 113.608 113.926 114.624 114.16 115.496C114.395 116.368 114.727 117.098 115.156 117.684C115.586 118.27 116.087 118.712 116.66 119.012C117.233 119.298 117.858 119.441 118.535 119.441C119.316 119.441 120 119.298 120.586 119.012C121.185 118.712 121.68 118.27 122.07 117.684C122.461 117.098 122.754 116.368 122.949 115.496C123.145 114.624 123.242 113.608 123.242 112.449V110.438C123.242 109.279 123.125 108.27 122.891 107.41C122.656 106.538 122.324 105.809 121.895 105.223C121.465 104.624 120.957 104.181 120.371 103.895C119.798 103.595 119.173 103.445 118.496 103.445C117.832 103.445 117.214 103.595 116.641 103.895C116.068 104.181 115.566 104.624 115.137 105.223C114.72 105.809 114.395 106.538 114.16 107.41C113.926 108.27 113.809 109.279 113.809 110.438ZM134.609 105.379V122H131.152V100.867H134.414L134.609 105.379ZM133.77 110.633L132.363 110.574C132.35 109.129 132.513 107.794 132.852 106.57C133.203 105.333 133.698 104.259 134.336 103.348C134.987 102.436 135.762 101.733 136.66 101.238C137.559 100.73 138.555 100.477 139.648 100.477C140.508 100.477 141.289 100.62 141.992 100.906C142.695 101.18 143.294 101.622 143.789 102.234C144.284 102.846 144.661 103.641 144.922 104.617C145.195 105.581 145.332 106.759 145.332 108.152V122H141.875V108.113C141.875 107.007 141.751 106.121 141.504 105.457C141.27 104.78 140.905 104.292 140.41 103.992C139.928 103.68 139.316 103.523 138.574 103.523C137.897 103.523 137.266 103.712 136.68 104.09C136.094 104.467 135.579 104.988 135.137 105.652C134.707 106.316 134.368 107.078 134.121 107.938C133.887 108.784 133.77 109.682 133.77 110.633ZM158.086 122.391C156.823 122.391 155.684 122.202 154.668 121.824C153.652 121.447 152.786 120.874 152.07 120.105C151.354 119.324 150.807 118.341 150.43 117.156C150.052 115.971 149.863 114.572 149.863 112.957V110.574C149.863 108.712 150.078 107.137 150.508 105.848C150.951 104.559 151.543 103.523 152.285 102.742C153.027 101.948 153.867 101.375 154.805 101.023C155.742 100.659 156.706 100.477 157.695 100.477C159.023 100.477 160.156 100.691 161.094 101.121C162.031 101.551 162.793 102.189 163.379 103.035C163.965 103.882 164.395 104.923 164.668 106.16C164.954 107.397 165.098 108.823 165.098 110.438V112.449H151.895V109.5H161.641V109.012C161.589 107.918 161.439 106.954 161.191 106.121C160.957 105.288 160.566 104.637 160.02 104.168C159.473 103.686 158.698 103.445 157.695 103.445C157.057 103.445 156.465 103.556 155.918 103.777C155.384 103.986 154.922 104.357 154.531 104.891C154.154 105.411 153.854 106.134 153.633 107.059C153.424 107.983 153.32 109.155 153.32 110.574V112.957C153.32 114.09 153.424 115.066 153.633 115.887C153.854 116.694 154.173 117.365 154.59 117.898C155.02 118.419 155.54 118.81 156.152 119.07C156.777 119.318 157.487 119.441 158.281 119.441C159.44 119.441 160.397 119.22 161.152 118.777C161.908 118.322 162.565 117.742 163.125 117.039L164.941 119.207C164.564 119.741 164.069 120.255 163.457 120.75C162.858 121.232 162.116 121.629 161.23 121.941C160.358 122.241 159.31 122.391 158.086 122.391ZM179.531 116.59C179.531 116.056 179.401 115.587 179.141 115.184C178.88 114.78 178.451 114.389 177.852 114.012C177.266 113.634 176.471 113.23 175.469 112.801C174.492 112.397 173.613 112 172.832 111.609C172.064 111.206 171.413 110.77 170.879 110.301C170.345 109.832 169.935 109.292 169.648 108.68C169.375 108.055 169.238 107.319 169.238 106.473C169.238 105.626 169.395 104.845 169.707 104.129C170.033 103.4 170.488 102.762 171.074 102.215C171.66 101.668 172.363 101.245 173.184 100.945C174.004 100.633 174.922 100.477 175.938 100.477C177.383 100.477 178.613 100.757 179.629 101.316C180.645 101.876 181.419 102.645 181.953 103.621C182.5 104.585 182.773 105.672 182.773 106.883H179.336C179.336 106.297 179.206 105.743 178.945 105.223C178.685 104.702 178.301 104.279 177.793 103.953C177.285 103.615 176.667 103.445 175.938 103.445C175.169 103.445 174.544 103.582 174.062 103.855C173.581 104.129 173.229 104.487 173.008 104.93C172.799 105.359 172.695 105.835 172.695 106.355C172.695 106.746 172.747 107.085 172.852 107.371C172.969 107.645 173.164 107.905 173.438 108.152C173.711 108.387 174.082 108.634 174.551 108.895C175.033 109.142 175.645 109.428 176.387 109.754C177.819 110.314 179.023 110.88 180 111.453C180.977 112.026 181.719 112.697 182.227 113.465C182.734 114.233 182.988 115.184 182.988 116.316C182.988 117.241 182.819 118.081 182.48 118.836C182.155 119.578 181.686 120.216 181.074 120.75C180.462 121.284 179.727 121.694 178.867 121.98C178.021 122.254 177.07 122.391 176.016 122.391C174.427 122.391 173.079 122.078 171.973 121.453C170.879 120.815 170.046 119.988 169.473 118.973C168.913 117.944 168.633 116.844 168.633 115.672H172.09C172.129 116.661 172.35 117.43 172.754 117.977C173.171 118.523 173.672 118.901 174.258 119.109C174.844 119.318 175.43 119.422 176.016 119.422C176.784 119.422 177.428 119.311 177.949 119.09C178.47 118.855 178.861 118.523 179.121 118.094C179.395 117.664 179.531 117.163 179.531 116.59Z"
        fill="#E1E1E6" />
    <path fill-rule="evenodd" clip-rule="evenodd"
        d="M103.293 201.293C103.683 200.902 104.317 200.902 104.707 201.293L114.707 211.293C115.098 211.683 115.098 212.317 114.707 212.707L104.707 222.707C104.317 223.098 103.683 223.098 103.293 222.707C102.902 222.317 102.902 221.683 103.293 221.293L112.586 212L103.293 202.707C102.902 202.317 102.902 201.683 103.293 201.293Z"
        fill="#C4C4CC" />
    <path fill-rule="evenodd" clip-rule="evenodd"
        d="M190.061 201.939C190.646 202.525 190.646 203.475 190.061 204.061L172.061 222.061C171.475 222.646 170.525 222.646 169.939 222.061C169.354 221.475 169.354 220.525 169.939 219.939L187.939 201.939C188.525 201.354 189.475 201.354 190.061 201.939Z"
        fill="#C4C4CC" />
    <path fill-rule="evenodd" clip-rule="evenodd"
        d="M169.939 201.939C170.525 201.354 171.475 201.354 172.061 201.939L190.061 219.939C190.646 220.525 190.646 221.475 190.061 222.061C189.475 222.646 188.525 222.646 187.939 222.061L169.939 204.061C169.354 203.475 169.354 202.525 169.939 201.939Z"
        fill="#C4C4CC" />
    <path fill-rule="evenodd" clip-rule="evenodd"
        d="M241.9 203.5H262.1V205L262.107 203.5C262.718 203.503 263.306 203.728 263.763 204.133C264.22 204.539 264.513 205.096 264.589 205.702L264.591 205.722L266.365 221.719C266.366 221.719 266.366 221.72 266.366 221.721C266.405 222.069 266.37 222.421 266.265 222.755C266.159 223.089 265.984 223.397 265.751 223.66C265.518 223.922 265.233 224.132 264.913 224.277C264.594 224.422 264.247 224.498 263.897 224.5L263.888 224.5H240.103C239.753 224.498 239.406 224.422 239.087 224.277C238.767 224.132 238.482 223.922 238.249 223.66C238.016 223.397 237.841 223.089 237.735 222.755C237.63 222.421 237.595 222.069 237.634 221.721C237.634 221.72 237.634 221.719 237.635 221.719L239.409 205.722L239.411 205.702C239.487 205.096 239.78 204.539 240.237 204.133C240.694 203.728 241.282 203.503 241.893 203.5L241.9 203.5ZM261.659 206.5H242.341L240.677 221.5H263.323L261.659 206.5Z"
        fill="#C4C4CC" />
    <path fill-rule="evenodd" clip-rule="evenodd"
        d="M252 201.5C251.072 201.5 250.182 201.869 249.525 202.525C248.869 203.182 248.5 204.072 248.5 205V209C248.5 209.828 247.828 210.5 247 210.5C246.172 210.5 245.5 209.828 245.5 209V205C245.5 203.276 246.185 201.623 247.404 200.404C248.623 199.185 250.276 198.5 252 198.5C253.724 198.5 255.377 199.185 256.596 200.404C257.815 201.623 258.5 203.276 258.5 205V209C258.5 209.828 257.828 210.5 257 210.5C256.172 210.5 255.5 209.828 255.5 209V205C255.5 204.072 255.131 203.182 254.475 202.525C253.818 201.869 252.928 201.5 252 201.5Z"
        fill="#C4C4CC" />
    <rect x="611" y="72" width="401" height="58" rx="8" fill="#202024" />
    <path
        d="M638.519 101.182C638.519 102.424 638.292 103.492 637.837 104.386C637.383 105.277 636.76 105.962 635.968 106.443C635.18 106.92 634.284 107.159 633.281 107.159C632.273 107.159 631.373 106.92 630.582 106.443C629.794 105.962 629.173 105.275 628.718 104.381C628.263 103.487 628.036 102.42 628.036 101.182C628.036 99.9394 628.263 98.8731 628.718 97.983C629.173 97.089 629.794 96.4034 630.582 95.9261C631.373 95.4451 632.273 95.2045 633.281 95.2045C634.284 95.2045 635.18 95.4451 635.968 95.9261C636.76 96.4034 637.383 97.089 637.837 97.983C638.292 98.8731 638.519 99.9394 638.519 101.182ZM636.781 101.182C636.781 100.235 636.627 99.4375 636.32 98.7898C636.017 98.1383 635.601 97.6458 635.07 97.3125C634.544 96.9754 633.947 96.8068 633.281 96.8068C632.61 96.8068 632.012 96.9754 631.485 97.3125C630.959 97.6458 630.542 98.1383 630.235 98.7898C629.932 99.4375 629.781 100.235 629.781 101.182C629.781 102.129 629.932 102.928 630.235 103.58C630.542 104.227 630.959 104.72 631.485 105.057C632.012 105.39 632.61 105.557 633.281 105.557C633.947 105.557 634.544 105.39 635.07 105.057C635.601 104.72 636.017 104.227 636.32 103.58C636.627 102.928 636.781 102.129 636.781 101.182ZM647.112 100.403L645.572 100.676C645.507 100.479 645.405 100.292 645.265 100.114C645.129 99.9356 644.943 99.7898 644.708 99.6761C644.473 99.5625 644.18 99.5057 643.827 99.5057C643.346 99.5057 642.945 99.6136 642.623 99.8295C642.301 100.042 642.14 100.316 642.14 100.653C642.14 100.945 642.248 101.18 642.464 101.358C642.68 101.536 643.028 101.682 643.509 101.795L644.896 102.114C645.699 102.299 646.297 102.585 646.691 102.972C647.085 103.358 647.282 103.86 647.282 104.477C647.282 105 647.13 105.466 646.827 105.875C646.528 106.28 646.11 106.598 645.572 106.83C645.038 107.061 644.418 107.176 643.714 107.176C642.737 107.176 641.939 106.968 641.322 106.551C640.704 106.131 640.326 105.534 640.185 104.761L641.827 104.511C641.93 104.939 642.14 105.263 642.458 105.483C642.776 105.699 643.191 105.807 643.702 105.807C644.259 105.807 644.704 105.691 645.038 105.46C645.371 105.225 645.538 104.939 645.538 104.602C645.538 104.33 645.435 104.1 645.231 103.915C645.03 103.729 644.721 103.589 644.305 103.494L642.827 103.17C642.013 102.985 641.411 102.689 641.021 102.284C640.634 101.879 640.441 101.366 640.441 100.744C640.441 100.229 640.585 99.7784 640.873 99.392C641.161 99.0057 641.558 98.7045 642.066 98.4886C642.574 98.2689 643.155 98.1591 643.81 98.1591C644.754 98.1591 645.496 98.3636 646.038 98.7727C646.579 99.178 646.937 99.7216 647.112 100.403ZM653.384 107V98.2727H655.083V107H653.384ZM653.543 97.108L654.873 94.4886H656.663L654.901 97.108H653.543ZM661.045 107.176C660.2 107.176 659.473 106.985 658.863 106.602C658.257 106.216 657.791 105.684 657.465 105.006C657.139 104.328 656.977 103.551 656.977 102.676C656.977 101.79 657.143 101.008 657.477 100.33C657.81 99.6477 658.28 99.1155 658.886 98.733C659.492 98.3504 660.206 98.1591 661.028 98.1591C661.691 98.1591 662.281 98.2822 662.8 98.5284C663.319 98.7708 663.738 99.1117 664.056 99.5511C664.378 99.9905 664.569 100.504 664.63 101.091H662.977C662.886 100.682 662.677 100.33 662.352 100.034C662.03 99.7386 661.598 99.5909 661.056 99.5909C660.583 99.5909 660.168 99.7159 659.812 99.9659C659.46 100.212 659.185 100.564 658.988 101.023C658.791 101.477 658.692 102.015 658.692 102.636C658.692 103.273 658.789 103.822 658.982 104.284C659.175 104.746 659.448 105.104 659.8 105.358C660.156 105.612 660.575 105.739 661.056 105.739C661.378 105.739 661.67 105.68 661.931 105.562C662.196 105.441 662.418 105.269 662.596 105.045C662.778 104.822 662.905 104.553 662.977 104.239H664.63C664.569 104.803 664.386 105.307 664.079 105.75C663.772 106.193 663.361 106.542 662.846 106.795C662.335 107.049 661.734 107.176 661.045 107.176ZM670.123 107.176C669.305 107.176 668.591 106.989 667.981 106.614C667.371 106.239 666.897 105.714 666.56 105.04C666.223 104.366 666.055 103.578 666.055 102.676C666.055 101.771 666.223 100.979 666.56 100.301C666.897 99.6231 667.371 99.0966 667.981 98.7216C668.591 98.3466 669.305 98.1591 670.123 98.1591C670.941 98.1591 671.655 98.3466 672.265 98.7216C672.875 99.0966 673.348 99.6231 673.685 100.301C674.022 100.979 674.191 101.771 674.191 102.676C674.191 103.578 674.022 104.366 673.685 105.04C673.348 105.714 672.875 106.239 672.265 106.614C671.655 106.989 670.941 107.176 670.123 107.176ZM670.129 105.75C670.659 105.75 671.098 105.61 671.447 105.33C671.795 105.049 672.053 104.676 672.219 104.21C672.39 103.744 672.475 103.231 672.475 102.67C672.475 102.114 672.39 101.602 672.219 101.136C672.053 100.667 671.795 100.29 671.447 100.006C671.098 99.7216 670.659 99.5795 670.129 99.5795C669.594 99.5795 669.151 99.7216 668.799 100.006C668.451 100.29 668.191 100.667 668.021 101.136C667.854 101.602 667.771 102.114 667.771 102.67C667.771 103.231 667.854 103.744 668.021 104.21C668.191 104.676 668.451 105.049 668.799 105.33C669.151 105.61 669.594 105.75 670.129 105.75ZM677.786 101.818V107H676.087V98.2727H677.718V99.6932H677.826C678.027 99.2311 678.341 98.8598 678.769 98.5795C679.201 98.2992 679.745 98.1591 680.4 98.1591C680.995 98.1591 681.515 98.2841 681.962 98.5341C682.409 98.7803 682.756 99.1477 683.002 99.6364C683.248 100.125 683.371 100.729 683.371 101.449V107H681.673V101.653C681.673 101.021 681.508 100.527 681.178 100.17C680.849 99.8106 680.396 99.6307 679.82 99.6307C679.426 99.6307 679.076 99.7159 678.769 99.8864C678.466 100.057 678.226 100.307 678.048 100.636C677.873 100.962 677.786 101.356 677.786 101.818ZM689.411 107.176C688.551 107.176 687.811 106.992 687.19 106.625C686.572 106.254 686.095 105.733 685.758 105.062C685.424 104.388 685.258 103.598 685.258 102.693C685.258 101.799 685.424 101.011 685.758 100.33C686.095 99.6477 686.565 99.1155 687.167 98.733C687.773 98.3504 688.481 98.1591 689.292 98.1591C689.784 98.1591 690.262 98.2405 690.724 98.4034C691.186 98.5663 691.601 98.822 691.968 99.1705C692.335 99.5189 692.625 99.9716 692.837 100.528C693.049 101.081 693.156 101.754 693.156 102.545V103.148H686.218V101.875H691.491C691.491 101.428 691.4 101.032 691.218 100.688C691.036 100.339 690.781 100.064 690.451 99.8636C690.125 99.6629 689.743 99.5625 689.303 99.5625C688.826 99.5625 688.409 99.6799 688.053 99.9148C687.701 100.146 687.428 100.449 687.235 100.824C687.046 101.195 686.951 101.598 686.951 102.034V103.028C686.951 103.612 687.053 104.108 687.258 104.517C687.466 104.926 687.756 105.239 688.127 105.455C688.498 105.667 688.932 105.773 689.428 105.773C689.75 105.773 690.044 105.727 690.309 105.636C690.574 105.542 690.803 105.402 690.996 105.216C691.19 105.03 691.337 104.801 691.44 104.528L693.048 104.818C692.919 105.292 692.688 105.706 692.354 106.062C692.025 106.415 691.61 106.689 691.11 106.886C690.614 107.08 690.048 107.176 689.411 107.176ZM701.58 100.403L700.04 100.676C699.976 100.479 699.874 100.292 699.734 100.114C699.597 99.9356 699.412 99.7898 699.177 99.6761C698.942 99.5625 698.648 99.5057 698.296 99.5057C697.815 99.5057 697.414 99.6136 697.092 99.8295C696.77 100.042 696.609 100.316 696.609 100.653C696.609 100.945 696.717 101.18 696.933 101.358C697.148 101.536 697.497 101.682 697.978 101.795L699.364 102.114C700.167 102.299 700.766 102.585 701.16 102.972C701.554 103.358 701.751 103.86 701.751 104.477C701.751 105 701.599 105.466 701.296 105.875C700.997 106.28 700.578 106.598 700.04 106.83C699.506 107.061 698.887 107.176 698.183 107.176C697.205 107.176 696.408 106.968 695.79 106.551C695.173 106.131 694.794 105.534 694.654 104.761L696.296 104.511C696.398 104.939 696.609 105.263 696.927 105.483C697.245 105.699 697.66 105.807 698.171 105.807C698.728 105.807 699.173 105.691 699.506 105.46C699.84 105.225 700.006 104.939 700.006 104.602C700.006 104.33 699.904 104.1 699.7 103.915C699.499 103.729 699.19 103.589 698.773 103.494L697.296 103.17C696.482 102.985 695.879 102.689 695.489 102.284C695.103 101.879 694.91 101.366 694.91 100.744C694.91 100.229 695.054 99.7784 695.342 99.392C695.629 99.0057 696.027 98.7045 696.535 98.4886C697.042 98.2689 697.624 98.1591 698.279 98.1591C699.222 98.1591 699.965 98.3636 700.506 98.7727C701.048 99.178 701.406 99.7216 701.58 100.403ZM707.853 110.273V98.2727H709.512V99.6875H709.654C709.753 99.5057 709.895 99.2955 710.08 99.0568C710.266 98.8182 710.523 98.6098 710.853 98.4318C711.183 98.25 711.618 98.1591 712.16 98.1591C712.864 98.1591 713.493 98.3371 714.046 98.6932C714.599 99.0492 715.033 99.5625 715.347 100.233C715.665 100.903 715.825 101.71 715.825 102.653C715.825 103.597 715.667 104.405 715.353 105.08C715.039 105.75 714.607 106.267 714.058 106.631C713.508 106.991 712.881 107.17 712.177 107.17C711.647 107.17 711.213 107.081 710.876 106.903C710.542 106.725 710.281 106.517 710.092 106.278C709.902 106.04 709.756 105.828 709.654 105.642H709.552V110.273H707.853ZM709.518 102.636C709.518 103.25 709.607 103.788 709.785 104.25C709.963 104.712 710.22 105.074 710.558 105.335C710.895 105.593 711.308 105.722 711.796 105.722C712.304 105.722 712.728 105.587 713.069 105.318C713.41 105.045 713.667 104.676 713.842 104.21C714.02 103.744 714.109 103.22 714.109 102.636C714.109 102.061 714.022 101.544 713.847 101.085C713.677 100.627 713.419 100.265 713.075 100C712.734 99.7348 712.308 99.6023 711.796 99.6023C711.304 99.6023 710.887 99.7292 710.546 99.983C710.209 100.237 709.953 100.591 709.779 101.045C709.605 101.5 709.518 102.03 709.518 102.636ZM721.489 107.176C720.629 107.176 719.889 106.992 719.268 106.625C718.65 106.254 718.173 105.733 717.836 105.062C717.503 104.388 717.336 103.598 717.336 102.693C717.336 101.799 717.503 101.011 717.836 100.33C718.173 99.6477 718.643 99.1155 719.245 98.733C719.851 98.3504 720.559 98.1591 721.37 98.1591C721.862 98.1591 722.34 98.2405 722.802 98.4034C723.264 98.5663 723.679 98.822 724.046 99.1705C724.414 99.5189 724.703 99.9716 724.915 100.528C725.128 101.081 725.234 101.754 725.234 102.545V103.148H718.296V101.875H723.569C723.569 101.428 723.478 101.032 723.296 100.688C723.114 100.339 722.859 100.064 722.529 99.8636C722.203 99.6629 721.821 99.5625 721.381 99.5625C720.904 99.5625 720.487 99.6799 720.131 99.9148C719.779 100.146 719.506 100.449 719.313 100.824C719.124 101.195 719.029 101.598 719.029 102.034V103.028C719.029 103.612 719.131 104.108 719.336 104.517C719.544 104.926 719.834 105.239 720.205 105.455C720.576 105.667 721.01 105.773 721.506 105.773C721.828 105.773 722.122 105.727 722.387 105.636C722.652 105.542 722.881 105.402 723.075 105.216C723.268 105.03 723.415 104.801 723.518 104.528L725.126 104.818C724.997 105.292 724.766 105.706 724.433 106.062C724.103 106.415 723.688 106.689 723.188 106.886C722.692 107.08 722.126 107.176 721.489 107.176ZM727.119 107V98.2727H728.761V99.6591H728.852C729.011 99.1894 729.291 98.8201 729.692 98.5511C730.098 98.2784 730.556 98.142 731.067 98.142C731.174 98.142 731.299 98.1458 731.442 98.1534C731.59 98.161 731.706 98.1705 731.789 98.1818V99.8068C731.721 99.7879 731.6 99.767 731.425 99.7443C731.251 99.7178 731.077 99.7045 730.903 99.7045C730.501 99.7045 730.143 99.7898 729.829 99.9602C729.518 100.127 729.272 100.36 729.09 100.659C728.908 100.955 728.817 101.292 728.817 101.67V107H727.119ZM737.849 98.2727V99.6364H733.082V98.2727H737.849ZM734.36 96.1818H736.059V104.438C736.059 104.767 736.108 105.015 736.207 105.182C736.305 105.345 736.432 105.456 736.587 105.517C736.746 105.574 736.919 105.602 737.104 105.602C737.241 105.602 737.36 105.593 737.462 105.574C737.565 105.555 737.644 105.54 737.701 105.528L738.008 106.932C737.909 106.97 737.769 107.008 737.587 107.045C737.406 107.087 737.178 107.11 736.906 107.114C736.459 107.121 736.042 107.042 735.656 106.875C735.269 106.708 734.957 106.451 734.718 106.102C734.479 105.754 734.36 105.316 734.36 104.79V96.1818ZM743.396 107.176C742.536 107.176 741.795 106.992 741.174 106.625C740.557 106.254 740.079 105.733 739.742 105.062C739.409 104.388 739.242 103.598 739.242 102.693C739.242 101.799 739.409 101.011 739.742 100.33C740.079 99.6477 740.549 99.1155 741.151 98.733C741.757 98.3504 742.466 98.1591 743.276 98.1591C743.769 98.1591 744.246 98.2405 744.708 98.4034C745.17 98.5663 745.585 98.822 745.952 99.1705C746.32 99.5189 746.61 99.9716 746.822 100.528C747.034 101.081 747.14 101.754 747.14 102.545V103.148H740.202V101.875H745.475C745.475 101.428 745.384 101.032 745.202 100.688C745.021 100.339 744.765 100.064 744.435 99.8636C744.11 99.6629 743.727 99.5625 743.288 99.5625C742.81 99.5625 742.394 99.6799 742.038 99.9148C741.685 100.146 741.413 100.449 741.219 100.824C741.03 101.195 740.935 101.598 740.935 102.034V103.028C740.935 103.612 741.038 104.108 741.242 104.517C741.451 104.926 741.74 105.239 742.112 105.455C742.483 105.667 742.916 105.773 743.413 105.773C743.735 105.773 744.028 105.727 744.293 105.636C744.558 105.542 744.788 105.402 744.981 105.216C745.174 105.03 745.322 104.801 745.424 104.528L747.032 104.818C746.903 105.292 746.672 105.706 746.339 106.062C746.009 106.415 745.594 106.689 745.094 106.886C744.598 107.08 744.032 107.176 743.396 107.176ZM750.724 101.818V107H749.025V98.2727H750.656V99.6932H750.763C750.964 99.2311 751.279 98.8598 751.707 98.5795C752.138 98.2992 752.682 98.1591 753.337 98.1591C753.932 98.1591 754.453 98.2841 754.9 98.5341C755.347 98.7803 755.693 99.1477 755.94 99.6364C756.186 100.125 756.309 100.729 756.309 101.449V107H754.61V101.653C754.61 101.021 754.445 100.527 754.116 100.17C753.786 99.8106 753.334 99.6307 752.758 99.6307C752.364 99.6307 752.013 99.7159 751.707 99.8864C751.404 100.057 751.163 100.307 750.985 100.636C750.811 100.962 750.724 101.356 750.724 101.818ZM762.263 107.176C761.419 107.176 760.692 106.985 760.082 106.602C759.476 106.216 759.01 105.684 758.684 105.006C758.358 104.328 758.195 103.551 758.195 102.676C758.195 101.79 758.362 101.008 758.695 100.33C759.029 99.6477 759.498 99.1155 760.104 98.733C760.71 98.3504 761.424 98.1591 762.246 98.1591C762.909 98.1591 763.5 98.2822 764.019 98.5284C764.538 98.7708 764.957 99.1117 765.275 99.5511C765.597 99.9905 765.788 100.504 765.849 101.091H764.195C764.104 100.682 763.896 100.33 763.57 100.034C763.248 99.7386 762.817 99.5909 762.275 99.5909C761.801 99.5909 761.387 99.7159 761.031 99.9659C760.678 100.212 760.404 100.564 760.207 101.023C760.01 101.477 759.911 102.015 759.911 102.636C759.911 103.273 760.008 103.822 760.201 104.284C760.394 104.746 760.667 105.104 761.019 105.358C761.375 105.612 761.794 105.739 762.275 105.739C762.597 105.739 762.888 105.68 763.15 105.562C763.415 105.441 763.637 105.269 763.815 105.045C763.996 104.822 764.123 104.553 764.195 104.239H765.849C765.788 104.803 765.604 105.307 765.298 105.75C764.991 106.193 764.58 106.542 764.065 106.795C763.553 107.049 762.953 107.176 762.263 107.176ZM771.427 107.176C770.567 107.176 769.826 106.992 769.205 106.625C768.588 106.254 768.111 105.733 767.773 105.062C767.44 104.388 767.273 103.598 767.273 102.693C767.273 101.799 767.44 101.011 767.773 100.33C768.111 99.6477 768.58 99.1155 769.183 98.733C769.789 98.3504 770.497 98.1591 771.308 98.1591C771.8 98.1591 772.277 98.2405 772.739 98.4034C773.201 98.5663 773.616 98.822 773.984 99.1705C774.351 99.5189 774.641 99.9716 774.853 100.528C775.065 101.081 775.171 101.754 775.171 102.545V103.148H768.234V101.875H773.506C773.506 101.428 773.415 101.032 773.234 100.688C773.052 100.339 772.796 100.064 772.467 99.8636C772.141 99.6629 771.758 99.5625 771.319 99.5625C770.842 99.5625 770.425 99.6799 770.069 99.9148C769.717 100.146 769.444 100.449 769.251 100.824C769.061 101.195 768.967 101.598 768.967 102.034V103.028C768.967 103.612 769.069 104.108 769.273 104.517C769.482 104.926 769.772 105.239 770.143 105.455C770.514 105.667 770.948 105.773 771.444 105.773C771.766 105.773 772.059 105.727 772.325 105.636C772.59 105.542 772.819 105.402 773.012 105.216C773.205 105.03 773.353 104.801 773.455 104.528L775.063 104.818C774.934 105.292 774.703 105.706 774.37 106.062C774.04 106.415 773.626 106.689 773.126 106.886C772.629 107.08 772.063 107.176 771.427 107.176ZM777.056 107V98.2727H778.687V99.6932H778.795C778.977 99.2121 779.274 98.8371 779.687 98.5682C780.1 98.2955 780.594 98.1591 781.17 98.1591C781.753 98.1591 782.242 98.2955 782.636 98.5682C783.033 98.8409 783.327 99.2159 783.516 99.6932H783.607C783.816 99.2273 784.147 98.8561 784.602 98.5795C785.056 98.2992 785.598 98.1591 786.227 98.1591C787.018 98.1591 787.664 98.4072 788.164 98.9034C788.668 99.3996 788.92 100.148 788.92 101.148V107H787.221V101.307C787.221 100.716 787.06 100.288 786.738 100.023C786.416 99.7576 786.031 99.625 785.585 99.625C785.031 99.625 784.602 99.7955 784.295 100.136C783.988 100.473 783.835 100.907 783.835 101.438V107H782.141V101.199C782.141 100.725 781.994 100.345 781.698 100.057C781.403 99.7689 781.018 99.625 780.545 99.625C780.223 99.625 779.925 99.7102 779.653 99.8807C779.384 100.047 779.166 100.28 778.999 100.58C778.836 100.879 778.755 101.225 778.755 101.619V107H777.056ZM797.971 107.193C797.418 107.193 796.918 107.091 796.471 106.886C796.024 106.678 795.67 106.377 795.408 105.983C795.151 105.589 795.022 105.106 795.022 104.534C795.022 104.042 795.117 103.636 795.306 103.318C795.496 103 795.751 102.748 796.073 102.562C796.395 102.377 796.755 102.237 797.153 102.142C797.55 102.047 797.956 101.975 798.369 101.926C798.891 101.866 799.316 101.816 799.641 101.778C799.967 101.737 800.204 101.67 800.352 101.58C800.499 101.489 800.573 101.341 800.573 101.136V101.097C800.573 100.6 800.433 100.216 800.153 99.9432C799.876 99.6705 799.463 99.5341 798.914 99.5341C798.342 99.5341 797.891 99.661 797.562 99.9148C797.236 100.165 797.011 100.443 796.886 100.75L795.289 100.386C795.478 99.8561 795.755 99.428 796.119 99.1023C796.486 98.7727 796.908 98.5341 797.386 98.3864C797.863 98.2348 798.365 98.1591 798.891 98.1591C799.24 98.1591 799.609 98.2008 799.999 98.2841C800.393 98.3636 800.761 98.5114 801.102 98.7273C801.446 98.9432 801.728 99.2519 801.948 99.6534C802.168 100.051 802.278 100.568 802.278 101.205V107H800.619V105.807H800.55C800.441 106.027 800.276 106.242 800.056 106.455C799.836 106.667 799.554 106.843 799.21 106.983C798.865 107.123 798.452 107.193 797.971 107.193ZM798.34 105.83C798.81 105.83 799.211 105.737 799.545 105.551C799.882 105.366 800.138 105.123 800.312 104.824C800.49 104.521 800.579 104.197 800.579 103.852V102.727C800.518 102.788 800.401 102.845 800.227 102.898C800.056 102.947 799.861 102.991 799.641 103.028C799.422 103.062 799.208 103.095 798.999 103.125C798.791 103.152 798.617 103.174 798.477 103.193C798.147 103.235 797.846 103.305 797.573 103.403C797.304 103.502 797.088 103.644 796.925 103.83C796.766 104.011 796.687 104.254 796.687 104.557C796.687 104.977 796.842 105.295 797.153 105.511C797.463 105.723 797.859 105.83 798.34 105.83ZM808.217 107.176C807.398 107.176 806.684 106.989 806.075 106.614C805.465 106.239 804.991 105.714 804.654 105.04C804.317 104.366 804.148 103.578 804.148 102.676C804.148 101.771 804.317 100.979 804.654 100.301C804.991 99.6231 805.465 99.0966 806.075 98.7216C806.684 98.3466 807.398 98.1591 808.217 98.1591C809.035 98.1591 809.749 98.3466 810.359 98.7216C810.969 99.0966 811.442 99.6231 811.779 100.301C812.116 100.979 812.285 101.771 812.285 102.676C812.285 103.578 812.116 104.366 811.779 105.04C811.442 105.714 810.969 106.239 810.359 106.614C809.749 106.989 809.035 107.176 808.217 107.176ZM808.222 105.75C808.753 105.75 809.192 105.61 809.54 105.33C809.889 105.049 810.147 104.676 810.313 104.21C810.484 103.744 810.569 103.231 810.569 102.67C810.569 102.114 810.484 101.602 810.313 101.136C810.147 100.667 809.889 100.29 809.54 100.006C809.192 99.7216 808.753 99.5795 808.222 99.5795C807.688 99.5795 807.245 99.7216 806.893 100.006C806.544 100.29 806.285 100.667 806.114 101.136C805.948 101.602 805.864 102.114 805.864 102.67C805.864 103.231 805.948 103.744 806.114 104.21C806.285 104.676 806.544 105.049 806.893 105.33C807.245 105.61 807.688 105.75 808.222 105.75ZM818.415 110.273V98.2727H820.075V99.6875H820.217C820.315 99.5057 820.457 99.2955 820.643 99.0568C820.828 98.8182 821.086 98.6098 821.415 98.4318C821.745 98.25 822.181 98.1591 822.722 98.1591C823.427 98.1591 824.056 98.3371 824.609 98.6932C825.162 99.0492 825.595 99.5625 825.91 100.233C826.228 100.903 826.387 101.71 826.387 102.653C826.387 103.597 826.23 104.405 825.915 105.08C825.601 105.75 825.169 106.267 824.62 106.631C824.071 106.991 823.444 107.17 822.739 107.17C822.209 107.17 821.775 107.081 821.438 106.903C821.105 106.725 820.844 106.517 820.654 106.278C820.465 106.04 820.319 105.828 820.217 105.642H820.114V110.273H818.415ZM820.08 102.636C820.08 103.25 820.169 103.788 820.347 104.25C820.525 104.712 820.783 105.074 821.12 105.335C821.457 105.593 821.87 105.722 822.359 105.722C822.866 105.722 823.29 105.587 823.631 105.318C823.972 105.045 824.23 104.676 824.404 104.21C824.582 103.744 824.671 103.22 824.671 102.636C824.671 102.061 824.584 101.544 824.41 101.085C824.239 100.627 823.982 100.265 823.637 100C823.296 99.7348 822.87 99.6023 822.359 99.6023C821.866 99.6023 821.45 99.7292 821.109 99.983C820.772 100.237 820.516 100.591 820.342 101.045C820.167 101.5 820.08 102.03 820.08 102.636ZM830.83 107.193C830.277 107.193 829.777 107.091 829.33 106.886C828.883 106.678 828.529 106.377 828.268 105.983C828.01 105.589 827.881 105.106 827.881 104.534C827.881 104.042 827.976 103.636 828.165 103.318C828.355 103 828.611 102.748 828.933 102.562C829.254 102.377 829.614 102.237 830.012 102.142C830.41 102.047 830.815 101.975 831.228 101.926C831.751 101.866 832.175 101.816 832.501 101.778C832.826 101.737 833.063 101.67 833.211 101.58C833.359 101.489 833.433 101.341 833.433 101.136V101.097C833.433 100.6 833.292 100.216 833.012 99.9432C832.736 99.6705 832.323 99.5341 831.773 99.5341C831.201 99.5341 830.751 99.661 830.421 99.9148C830.095 100.165 829.87 100.443 829.745 100.75L828.148 100.386C828.338 99.8561 828.614 99.428 828.978 99.1023C829.345 98.7727 829.768 98.5341 830.245 98.3864C830.722 98.2348 831.224 98.1591 831.751 98.1591C832.099 98.1591 832.469 98.2008 832.859 98.2841C833.253 98.3636 833.62 98.5114 833.961 98.7273C834.306 98.9432 834.588 99.2519 834.808 99.6534C835.027 100.051 835.137 100.568 835.137 101.205V107H833.478V105.807H833.41C833.3 106.027 833.135 106.242 832.915 106.455C832.696 106.667 832.414 106.843 832.069 106.983C831.724 107.123 831.311 107.193 830.83 107.193ZM831.2 105.83C831.669 105.83 832.071 105.737 832.404 105.551C832.741 105.366 832.997 105.123 833.171 104.824C833.349 104.521 833.438 104.197 833.438 103.852V102.727C833.378 102.788 833.26 102.845 833.086 102.898C832.915 102.947 832.72 102.991 832.501 103.028C832.281 103.062 832.067 103.095 831.859 103.125C831.65 103.152 831.476 103.174 831.336 103.193C831.006 103.235 830.705 103.305 830.433 103.403C830.164 103.502 829.948 103.644 829.785 103.83C829.626 104.011 829.546 104.254 829.546 104.557C829.546 104.977 829.701 105.295 830.012 105.511C830.323 105.723 830.719 105.83 831.2 105.83ZM841.076 107.176C840.231 107.176 839.504 106.985 838.894 106.602C838.288 106.216 837.822 105.684 837.496 105.006C837.171 104.328 837.008 103.551 837.008 102.676C837.008 101.79 837.174 101.008 837.508 100.33C837.841 99.6477 838.311 99.1155 838.917 98.733C839.523 98.3504 840.237 98.1591 841.059 98.1591C841.722 98.1591 842.313 98.2822 842.832 98.5284C843.351 98.7708 843.769 99.1117 844.087 99.5511C844.409 99.9905 844.601 100.504 844.661 101.091H843.008C842.917 100.682 842.709 100.33 842.383 100.034C842.061 99.7386 841.629 99.5909 841.087 99.5909C840.614 99.5909 840.199 99.7159 839.843 99.9659C839.491 100.212 839.216 100.564 839.019 101.023C838.822 101.477 838.724 102.015 838.724 102.636C838.724 103.273 838.82 103.822 839.013 104.284C839.207 104.746 839.479 105.104 839.832 105.358C840.188 105.612 840.606 105.739 841.087 105.739C841.409 105.739 841.701 105.68 841.962 105.562C842.228 105.441 842.449 105.269 842.627 105.045C842.809 104.822 842.936 104.553 843.008 104.239H844.661C844.601 104.803 844.417 105.307 844.11 105.75C843.803 106.193 843.392 106.542 842.877 106.795C842.366 107.049 841.765 107.176 841.076 107.176ZM850.154 107.176C849.336 107.176 848.622 106.989 848.012 106.614C847.402 106.239 846.929 105.714 846.592 105.04C846.254 104.366 846.086 103.578 846.086 102.676C846.086 101.771 846.254 100.979 846.592 100.301C846.929 99.6231 847.402 99.0966 848.012 98.7216C848.622 98.3466 849.336 98.1591 850.154 98.1591C850.972 98.1591 851.686 98.3466 852.296 98.7216C852.906 99.0966 853.379 99.6231 853.717 100.301C854.054 100.979 854.222 101.771 854.222 102.676C854.222 103.578 854.054 104.366 853.717 105.04C853.379 105.714 852.906 106.239 852.296 106.614C851.686 106.989 850.972 107.176 850.154 107.176ZM850.16 105.75C850.69 105.75 851.129 105.61 851.478 105.33C851.826 105.049 852.084 104.676 852.251 104.21C852.421 103.744 852.506 103.231 852.506 102.67C852.506 102.114 852.421 101.602 852.251 101.136C852.084 100.667 851.826 100.29 851.478 100.006C851.129 99.7216 850.69 99.5795 850.16 99.5795C849.626 99.5795 849.183 99.7216 848.83 100.006C848.482 100.29 848.222 100.667 848.052 101.136C847.885 101.602 847.802 102.114 847.802 102.67C847.802 103.231 847.885 103.744 848.052 104.21C848.222 104.676 848.482 105.049 848.83 105.33C849.183 105.61 849.626 105.75 850.16 105.75ZM860.192 98.2727V99.6364H855.425V98.2727H860.192ZM856.704 96.1818H858.403V104.438C858.403 104.767 858.452 105.015 858.55 105.182C858.649 105.345 858.776 105.456 858.931 105.517C859.09 105.574 859.263 105.602 859.448 105.602C859.585 105.602 859.704 105.593 859.806 105.574C859.908 105.555 859.988 105.54 860.045 105.528L860.352 106.932C860.253 106.97 860.113 107.008 859.931 107.045C859.749 107.087 859.522 107.11 859.249 107.114C858.802 107.121 858.386 107.042 857.999 106.875C857.613 106.708 857.3 106.451 857.062 106.102C856.823 105.754 856.704 105.316 856.704 104.79V96.1818ZM865.739 107.176C864.879 107.176 864.139 106.992 863.518 106.625C862.9 106.254 862.423 105.733 862.086 105.062C861.753 104.388 861.586 103.598 861.586 102.693C861.586 101.799 861.753 101.011 862.086 100.33C862.423 99.6477 862.893 99.1155 863.495 98.733C864.101 98.3504 864.809 98.1591 865.62 98.1591C866.112 98.1591 866.59 98.2405 867.052 98.4034C867.514 98.5663 867.929 98.822 868.296 99.1705C868.664 99.5189 868.953 99.9716 869.165 100.528C869.378 101.081 869.484 101.754 869.484 102.545V103.148H862.546V101.875H867.819C867.819 101.428 867.728 101.032 867.546 100.688C867.364 100.339 867.109 100.064 866.779 99.8636C866.453 99.6629 866.071 99.5625 865.631 99.5625C865.154 99.5625 864.737 99.6799 864.381 99.9148C864.029 100.146 863.756 100.449 863.563 100.824C863.374 101.195 863.279 101.598 863.279 102.034V103.028C863.279 103.612 863.381 104.108 863.586 104.517C863.794 104.926 864.084 105.239 864.455 105.455C864.826 105.667 865.26 105.773 865.756 105.773C866.078 105.773 866.372 105.727 866.637 105.636C866.902 105.542 867.131 105.402 867.325 105.216C867.518 105.03 867.665 104.801 867.768 104.528L869.376 104.818C869.247 105.292 869.016 105.706 868.683 106.062C868.353 106.415 867.938 106.689 867.438 106.886C866.942 107.08 866.376 107.176 865.739 107.176ZM874.941 107V95.3636H879.532C880.415 95.3636 881.166 95.5322 881.788 95.8693C882.409 96.2027 882.882 96.6667 883.208 97.2614C883.538 97.8523 883.702 98.5341 883.702 99.3068C883.702 100.08 883.536 100.761 883.202 101.352C882.869 101.943 882.386 102.403 881.754 102.733C881.125 103.062 880.363 103.227 879.469 103.227H876.543V101.256H879.072C879.545 101.256 879.935 101.174 880.242 101.011C880.553 100.845 880.784 100.616 880.935 100.324C881.091 100.028 881.168 99.6894 881.168 99.3068C881.168 98.9205 881.091 98.5833 880.935 98.2955C880.784 98.0038 880.553 97.7784 880.242 97.6193C879.932 97.4564 879.538 97.375 879.06 97.375H877.401V107H874.941ZM887.675 101.955V107H885.255V95.3636H887.607V99.8125H887.71C887.906 99.2973 888.225 98.8939 888.664 98.6023C889.103 98.3068 889.655 98.1591 890.317 98.1591C890.924 98.1591 891.452 98.2917 891.903 98.5568C892.357 98.8182 892.71 99.1951 892.96 99.6875C893.213 100.176 893.338 100.761 893.335 101.443V107H890.914V101.875C890.918 101.337 890.781 100.919 890.505 100.619C890.232 100.32 889.85 100.17 889.357 100.17C889.028 100.17 888.736 100.241 888.482 100.381C888.232 100.521 888.035 100.725 887.891 100.994C887.751 101.259 887.679 101.58 887.675 101.955ZM899.183 107.17C898.3 107.17 897.537 106.983 896.893 106.608C896.253 106.229 895.758 105.703 895.41 105.028C895.061 104.35 894.887 103.564 894.887 102.67C894.887 101.769 895.061 100.981 895.41 100.307C895.758 99.6288 896.253 99.1023 896.893 98.7273C897.537 98.3485 898.3 98.1591 899.183 98.1591C900.065 98.1591 900.826 98.3485 901.467 98.7273C902.111 99.1023 902.607 99.6288 902.955 100.307C903.304 100.981 903.478 101.769 903.478 102.67C903.478 103.564 903.304 104.35 902.955 105.028C902.607 105.703 902.111 106.229 901.467 106.608C900.826 106.983 900.065 107.17 899.183 107.17ZM899.194 105.295C899.595 105.295 899.931 105.182 900.2 104.955C900.469 104.723 900.671 104.409 900.808 104.011C900.948 103.614 901.018 103.161 901.018 102.653C901.018 102.146 900.948 101.693 900.808 101.295C900.671 100.898 900.469 100.583 900.2 100.352C899.931 100.121 899.595 100.006 899.194 100.006C898.789 100.006 898.448 100.121 898.171 100.352C897.898 100.583 897.692 100.898 897.552 101.295C897.415 101.693 897.347 102.146 897.347 102.653C897.347 103.161 897.415 103.614 897.552 104.011C897.692 104.409 897.898 104.723 898.171 104.955C898.448 105.182 898.789 105.295 899.194 105.295ZM912.313 100.761L910.097 100.898C910.059 100.708 909.978 100.538 909.853 100.386C909.728 100.231 909.563 100.108 909.359 100.017C909.158 99.9223 908.917 99.875 908.637 99.875C908.262 99.875 907.946 99.9545 907.688 100.114C907.431 100.269 907.302 100.477 907.302 100.739C907.302 100.947 907.385 101.123 907.552 101.267C907.719 101.411 908.004 101.527 908.41 101.614L909.989 101.932C910.838 102.106 911.47 102.386 911.887 102.773C912.304 103.159 912.512 103.667 912.512 104.295C912.512 104.867 912.344 105.369 912.006 105.801C911.673 106.233 911.215 106.57 910.631 106.812C910.052 107.051 909.383 107.17 908.626 107.17C907.47 107.17 906.55 106.93 905.864 106.449C905.183 105.964 904.783 105.305 904.665 104.472L907.046 104.347C907.118 104.699 907.292 104.968 907.569 105.153C907.845 105.335 908.2 105.426 908.631 105.426C909.056 105.426 909.397 105.345 909.654 105.182C909.915 105.015 910.048 104.801 910.052 104.54C910.048 104.32 909.955 104.14 909.773 104C909.592 103.856 909.311 103.746 908.933 103.67L907.421 103.369C906.569 103.199 905.934 102.903 905.518 102.483C905.105 102.062 904.898 101.527 904.898 100.875C904.898 100.314 905.05 99.8314 905.353 99.4261C905.66 99.0208 906.09 98.7083 906.643 98.4886C907.2 98.2689 907.851 98.1591 908.597 98.1591C909.7 98.1591 910.567 98.392 911.2 98.858C911.836 99.3239 912.207 99.9583 912.313 100.761ZM914.036 110.273V98.2727H916.423V99.7386H916.531C916.637 99.5038 916.79 99.2652 916.991 99.0227C917.195 98.7765 917.46 98.572 917.786 98.4091C918.116 98.2424 918.525 98.1591 919.013 98.1591C919.65 98.1591 920.237 98.3258 920.775 98.6591C921.313 98.9886 921.743 99.4867 922.065 100.153C922.387 100.816 922.548 101.648 922.548 102.648C922.548 103.621 922.39 104.443 922.076 105.114C921.765 105.78 921.341 106.286 920.803 106.631C920.269 106.972 919.671 107.142 919.008 107.142C918.538 107.142 918.138 107.064 917.809 106.909C917.483 106.754 917.216 106.559 917.008 106.324C916.799 106.085 916.64 105.845 916.531 105.602H916.457V110.273H914.036ZM916.406 102.636C916.406 103.155 916.478 103.608 916.621 103.994C916.765 104.381 916.974 104.682 917.246 104.898C917.519 105.11 917.851 105.216 918.241 105.216C918.635 105.216 918.968 105.108 919.241 104.892C919.513 104.672 919.72 104.369 919.86 103.983C920.004 103.593 920.076 103.144 920.076 102.636C920.076 102.133 920.006 101.689 919.866 101.307C919.726 100.924 919.519 100.625 919.246 100.409C918.974 100.193 918.638 100.085 918.241 100.085C917.847 100.085 917.513 100.189 917.241 100.398C916.972 100.606 916.765 100.902 916.621 101.284C916.478 101.667 916.406 102.117 916.406 102.636ZM926.582 101.955V107H924.161V95.3636H926.513V99.8125H926.616C926.813 99.2973 927.131 98.8939 927.57 98.6023C928.01 98.3068 928.561 98.1591 929.224 98.1591C929.83 98.1591 930.358 98.2917 930.809 98.5568C931.263 98.8182 931.616 99.1951 931.866 99.6875C932.12 100.176 932.245 100.761 932.241 101.443V107H929.82V101.875C929.824 101.337 929.688 100.919 929.411 100.619C929.138 100.32 928.756 100.17 928.263 100.17C927.934 100.17 927.642 100.241 927.388 100.381C927.138 100.521 926.942 100.725 926.798 100.994C926.657 101.259 926.585 101.58 926.582 101.955ZM938.089 107.17C937.206 107.17 936.443 106.983 935.799 106.608C935.159 106.229 934.665 105.703 934.316 105.028C933.968 104.35 933.793 103.564 933.793 102.67C933.793 101.769 933.968 100.981 934.316 100.307C934.665 99.6288 935.159 99.1023 935.799 98.7273C936.443 98.3485 937.206 98.1591 938.089 98.1591C938.971 98.1591 939.733 98.3485 940.373 98.7273C941.017 99.1023 941.513 99.6288 941.862 100.307C942.21 100.981 942.384 101.769 942.384 102.67C942.384 103.564 942.21 104.35 941.862 105.028C941.513 105.703 941.017 106.229 940.373 106.608C939.733 106.983 938.971 107.17 938.089 107.17ZM938.1 105.295C938.502 105.295 938.837 105.182 939.106 104.955C939.375 104.723 939.577 104.409 939.714 104.011C939.854 103.614 939.924 103.161 939.924 102.653C939.924 102.146 939.854 101.693 939.714 101.295C939.577 100.898 939.375 100.583 939.106 100.352C938.837 100.121 938.502 100.006 938.1 100.006C937.695 100.006 937.354 100.121 937.077 100.352C936.805 100.583 936.598 100.898 936.458 101.295C936.322 101.693 936.254 102.146 936.254 102.653C936.254 103.161 936.322 103.614 936.458 104.011C936.598 104.409 936.805 104.723 937.077 104.955C937.354 105.182 937.695 105.295 938.1 105.295ZM943.958 107V98.2727H946.305V99.7955H946.396C946.555 99.2538 946.822 98.8447 947.197 98.5682C947.572 98.2879 948.004 98.1477 948.492 98.1477C948.613 98.1477 948.744 98.1553 948.884 98.1705C949.024 98.1856 949.147 98.2064 949.254 98.233V100.381C949.14 100.347 948.983 100.316 948.782 100.29C948.581 100.263 948.397 100.25 948.231 100.25C947.875 100.25 947.557 100.328 947.276 100.483C947 100.634 946.78 100.847 946.617 101.119C946.458 101.392 946.379 101.706 946.379 102.062V107H943.958ZM956.714 95.3636V107H954.254V95.3636H956.714ZM962.636 107.17C961.742 107.17 960.973 106.981 960.329 106.602C959.689 106.22 959.196 105.689 958.852 105.011C958.511 104.333 958.34 103.553 958.34 102.67C958.34 101.777 958.513 100.992 958.857 100.318C959.206 99.6402 959.7 99.1117 960.34 98.733C960.98 98.3504 961.742 98.1591 962.624 98.1591C963.386 98.1591 964.052 98.2973 964.624 98.5739C965.196 98.8504 965.649 99.2386 965.982 99.7386C966.316 100.239 966.499 100.826 966.533 101.5H964.249C964.185 101.064 964.014 100.714 963.738 100.449C963.465 100.18 963.107 100.045 962.664 100.045C962.289 100.045 961.961 100.148 961.681 100.352C961.405 100.553 961.189 100.847 961.033 101.233C960.878 101.619 960.8 102.087 960.8 102.636C960.8 103.193 960.876 103.667 961.028 104.057C961.183 104.447 961.401 104.744 961.681 104.949C961.961 105.153 962.289 105.256 962.664 105.256C962.941 105.256 963.189 105.199 963.408 105.085C963.632 104.972 963.816 104.807 963.96 104.591C964.107 104.371 964.204 104.108 964.249 103.801H966.533C966.496 104.468 966.314 105.055 965.988 105.562C965.666 106.066 965.221 106.46 964.653 106.744C964.085 107.028 963.412 107.17 962.636 107.17ZM972.026 107.17C971.144 107.17 970.38 106.983 969.737 106.608C969.096 106.229 968.602 105.703 968.254 105.028C967.905 104.35 967.731 103.564 967.731 102.67C967.731 101.769 967.905 100.981 968.254 100.307C968.602 99.6288 969.096 99.1023 969.737 98.7273C970.38 98.3485 971.144 98.1591 972.026 98.1591C972.909 98.1591 973.67 98.3485 974.31 98.7273C974.954 99.1023 975.451 99.6288 975.799 100.307C976.147 100.981 976.322 101.769 976.322 102.67C976.322 103.564 976.147 104.35 975.799 105.028C975.451 105.703 974.954 106.229 974.31 106.608C973.67 106.983 972.909 107.17 972.026 107.17ZM972.038 105.295C972.439 105.295 972.774 105.182 973.043 104.955C973.312 104.723 973.515 104.409 973.651 104.011C973.791 103.614 973.862 103.161 973.862 102.653C973.862 102.146 973.791 101.693 973.651 101.295C973.515 100.898 973.312 100.583 973.043 100.352C972.774 100.121 972.439 100.006 972.038 100.006C971.632 100.006 971.291 100.121 971.015 100.352C970.742 100.583 970.536 100.898 970.396 101.295C970.259 101.693 970.191 102.146 970.191 102.653C970.191 103.161 970.259 103.614 970.396 104.011C970.536 104.409 970.742 104.723 971.015 104.955C971.291 105.182 971.632 105.295 972.038 105.295ZM980.316 101.955V107H977.896V98.2727H980.202V99.8125H980.305C980.498 99.3049 980.822 98.9034 981.276 98.608C981.731 98.3087 982.282 98.1591 982.93 98.1591C983.536 98.1591 984.064 98.2917 984.515 98.5568C984.966 98.822 985.316 99.2008 985.566 99.6932C985.816 100.182 985.941 100.765 985.941 101.443V107H983.521V101.875C983.524 101.341 983.388 100.924 983.112 100.625C982.835 100.322 982.454 100.17 981.969 100.17C981.644 100.17 981.356 100.241 981.106 100.381C980.86 100.521 980.666 100.725 980.526 100.994C980.39 101.259 980.32 101.58 980.316 101.955ZM995.11 100.761L992.894 100.898C992.856 100.708 992.775 100.538 992.65 100.386C992.525 100.231 992.36 100.108 992.156 100.017C991.955 99.9223 991.714 99.875 991.434 99.875C991.059 99.875 990.743 99.9545 990.485 100.114C990.228 100.269 990.099 100.477 990.099 100.739C990.099 100.947 990.182 101.123 990.349 101.267C990.515 101.411 990.801 101.527 991.207 101.614L992.786 101.932C993.635 102.106 994.267 102.386 994.684 102.773C995.101 103.159 995.309 103.667 995.309 104.295C995.309 104.867 995.14 105.369 994.803 105.801C994.47 106.233 994.012 106.57 993.428 106.812C992.849 107.051 992.18 107.17 991.423 107.17C990.267 107.17 989.347 106.93 988.661 106.449C987.979 105.964 987.58 105.305 987.462 104.472L989.843 104.347C989.915 104.699 990.089 104.968 990.366 105.153C990.642 105.335 990.996 105.426 991.428 105.426C991.853 105.426 992.193 105.345 992.451 105.182C992.712 105.015 992.845 104.801 992.849 104.54C992.845 104.32 992.752 104.14 992.57 104C992.388 103.856 992.108 103.746 991.729 103.67L990.218 103.369C989.366 103.199 988.731 102.903 988.315 102.483C987.902 102.062 987.695 101.527 987.695 100.875C987.695 100.314 987.847 99.8314 988.15 99.4261C988.457 99.0208 988.887 98.7083 989.44 98.4886C989.996 98.2689 990.648 98.1591 991.394 98.1591C992.496 98.1591 993.364 98.392 993.996 98.858C994.633 99.3239 995.004 99.9583 995.11 100.761Z"
        fill="#8D8D99" />
    <path d="M870.227 110.182H995.871V111.273H870.227V110.182Z" fill="#8D8D99" />
    <a href="https://phosphoricons.com/">
        <rect fill="black" fill-opacity="0" x="243.227" y="3.31818" width="125.645" height="19.3636" />
    </a>
</svg>
    